<?xml version="1.0" encoding="utf-8"?>
<!-- Generator: Adobe Illustrator 24.0.0, SVG Export Plug-In . SVG Version: 6.00 Build 0)  -->
<svg version="1.1" id="Capa_1" xmlns="http://www.w3.org/2000/svg" xmlns:xlink="http://www.w3.org/1999/xlink" x="0px" y="0px"
	 viewBox="0 0 238.8 238.8" style="enable-background:new 0 0 238.8 238.8;" xml:space="preserve">
<style type="text/css">
	.st0{fill:#FFFFFF;}
</style>
<g>
	<g>
		<path class="st0" d="M20.2,61L0.1,229.8c-0.2,2,0.4,4.1,1.8,5.6c1.4,1.5,3.3,2.4,5.4,2.4h224.4c2,0,4-0.9,5.4-2.4
			c1.4-1.5,2-3.6,1.8-5.6L218.6,61c-0.4-3.6-3.5-6.3-7.1-6.3h-32.1C175.8,24.4,150.1,1,119,1S62.2,24.5,58.6,54.6H27.3
			C23.6,54.6,20.6,57.4,20.2,61z M119,15.3c23.2,0,42.4,17.1,45.9,39.3H73.1C76.5,32.4,95.8,15.3,119,15.3z M65.3,69h107.4h32.5
			l18.4,154.5H15.2L33.6,69H65.3z"/>
	</g>
</g>
</svg>
